<?xml version="1.0" encoding="UTF-8" standalone="no"?>
<svg
   xmlns:dc="http://purl.org/dc/elements/1.1/"
   xmlns:cc="http://creativecommons.org/ns#"
   xmlns:rdf="http://www.w3.org/1999/02/22-rdf-syntax-ns#"
   xmlns:svg="http://www.w3.org/2000/svg"
   xmlns="http://www.w3.org/2000/svg"
   xmlns:sodipodi="http://sodipodi.sourceforge.net/DTD/sodipodi-0.dtd"
   xmlns:inkscape="http://www.inkscape.org/namespaces/inkscape"
   width="210mm"
   height="297mm"
   viewBox="0 0 210 297"
   version="1.1"
   id="svg8"
   inkscape:version="1.0.1 (3bc2e813f5, 2020-09-07)"
   sodipodi:docname="first.svg">
  <defs
     id="defs2">
    <rect
       x="52.870342"
       y="161.78788"
       width="252.97238"
       height="144.25725"
       id="rect841" />
    <rect
       x="8.8856703"
       y="8.3481892"
       width="192.10778"
       height="112.65905"
       id="rect835" />
  </defs>
  <sodipodi:namedview
     id="base"
     pagecolor="#ffffff"
     bordercolor="#666666"
     borderopacity="1.0"
     inkscape:pageopacity="0.0"
     inkscape:pageshadow="2"
     inkscape:zoom="1.4"
     inkscape:cx="343.42649"
     inkscape:cy="367.33946"
     inkscape:document-units="mm"
     inkscape:current-layer="layer1"
     inkscape:document-rotation="0"
     showgrid="false"
     showguides="true"
     inkscape:guide-bbox="true"
     inkscape:window-width="2880"
     inkscape:window-height="1553"
     inkscape:window-x="0"
     inkscape:window-y="0"
     inkscape:window-maximized="1">
    <sodipodi:guide
       position="2.6726952,220.56092"
       orientation="1,0"
       id="guide845" />
  </sodipodi:namedview>
  <metadata
     id="metadata5">
    <rdf:RDF>
      <cc:Work
         rdf:about="">
        <dc:format>image/svg+xml</dc:format>
        <dc:type
           rdf:resource="http://purl.org/dc/dcmitype/StillImage" />
        <dc:title></dc:title>
      </cc:Work>
    </rdf:RDF>
  </metadata>
  <g
     inkscape:label="Layer 1"
     inkscape:groupmode="layer"
     id="layer1">
    <g
       aria-label="VRTLR"
       transform="matrix(7.06113,0,0,7.06113,-62.200029,-63.485641)"
       id="text833"
       style="font-style:normal;font-variant:normal;font-weight:normal;font-stretch:normal;font-size:10.5833px;line-height:1.25;font-family:Letterblocks;-inkscape-font-specification:Letterblocks;letter-spacing:0px;word-spacing:0px;white-space:pre;shape-inside:url(#rect835);fill:#000000;fill-opacity:1;stroke:none;stroke-width:0.14162">
      <path
         d="m 14.843163,11.31098 v 0.01058 l -2.264826,5.535066 v 0.01058 q -0.01058,0 -0.01058,0.01058 0,0 -0.01058,0 l -0.793748,0.677331 h -0.01058 v 0.01058 h -0.01058 -0.01058 -0.01058 -0.01058 l -0.455082,-0.09525 h -0.01058 -0.01058 l -0.01058,-0.01058 q -0.01058,0 -0.01058,-0.01058 0,0 -0.01058,-0.02117 L 9.075265,10.982898 v -0.02117 -0.01058 -0.01058 h 0.010583 v -0.01058 l 0.010583,-0.01058 0.8043308,-0.677331 q 0.010583,-0.01058 0.052917,-0.01058 l 0.6244151,0.126999 q 0.01058,0.01058 0.01058,0.01058 0.01058,0 0.02117,0.01058 0,0.01058 0.01058,0.01058 v 0.01058 l 1.471078,4.444986 1.227663,-3.026823 v -0.01058 l 0.01058,-0.01058 0.804331,-0.677331 q 0.01058,0 0.01058,-0.01058 h 0.04233 l 0.613831,0.127 q 0,0 0.02117,0.01058 0.02117,0.02117 0.02117,0.03175 v 0.01058 0.01058 z m -0.201082,0.179916 -0.613832,0.507999 -2.158993,5.312816 0.603248,-0.507998 z m -2.963324,5.947815 2.222493,-5.429233 -0.497415,-0.09525 -1.269996,3.132657 -0.497415,1.227663 q -0.02117,0.05292 -0.03175,0.09525 -0.01058,0.04233 -0.03175,0.08467 v 0.01058 h -0.01058 v 0.01058 h -0.01058 v 0.01058 h -0.01058 -0.01058 q 0,0.01058 -0.01058,0.01058 h -0.01058 v -0.01058 h -0.01058 -0.01058 -0.01058 v -0.01058 q -0.01058,0 -0.01058,-0.01058 v -0.01058 h -0.01058 v -0.01058 q -0.02117,-0.05292 -0.03175,-0.105833 -0.01058,-0.05292 -0.03175,-0.105833 l -1.6721617,-5.090567 -0.4974151,-0.09525 2.0849098,6.31823 z m -2.4129926,-6.50873 0.4762485,0.09525 0.6879141,-0.571498 -0.4762481,-0.09525 z m 4.2439036,0.878414 0.455081,0.09525 0.687915,-0.582082 -0.465665,-0.09525 z m -1.492246,3.217323 -1.481662,-4.497902 -0.6984974,0.582081 1.6615784,5.079984 q 0.02117,0.04233 0.02117,0.05292 l 0.01058,-0.01058 z"
         style="font-style:normal;font-variant:normal;font-weight:normal;font-stretch:normal;font-family:Letterblocks;-inkscape-font-specification:Letterblocks;stroke-width:0.0200563"
         id="path847" />
      <path
         d="m 18.430895,13.55464 q -0.08467,0.349249 -0.349249,0.539748 -0.264583,0.179916 -0.634998,0.179916 -0.211666,0 -0.391582,-0.04233 l -0.867831,-0.179916 q -0.03175,0 -0.03175,-0.02117 h -0.01058 q -0.01058,-0.01058 -0.01058,-0.04233 v -2.338909 -0.02117 h 0.01058 v -0.01058 q 0.01058,-0.03175 0.0635,-0.03175 l 0.952497,0.201083 q 0.645581,0.126999 0.973663,0.507998 0.328083,0.370416 0.328083,0.920747 0,0.190499 -0.03175,0.328082 z m -0.391582,-1.18533 q -0.306916,-0.338665 -0.910164,-0.465665 l -0.07408,-0.01058 v 1.375829 l 0.825497,0.169332 q 0.211666,0.04233 0.444499,0.04233 0.01058,-0.0635 0.01058,-0.127 0.01058,-0.0635 0.01058,-0.137583 0,-0.486832 -0.306915,-0.846664 z M 16.93865,11.861312 16.250735,11.723729 v 2.137826 l 0.687915,-0.571498 z m 0.137582,2.254243 q 0.603249,0.116416 0.931331,-0.116417 0.211666,-0.158749 0.285749,-0.402165 h -0.04233 q -0.08467,0 -0.1905,-0.01058 -0.09525,-0.01058 -0.201082,-0.03175 l -0.846664,-0.169333 -0.687915,0.571498 z m 2.169577,3.672405 q 0,0.01058 -0.01058,0.01058 h -0.01058 -0.01058 -0.01058 l -0.634998,-0.127 v -0.01058 h -0.01058 -0.01058 v -0.01058 h -0.01058 v -0.01058 q -0.01058,0 -0.01058,-0.01058 l -0.804331,-1.904994 q -0.09525,-0.243416 -0.201083,-0.423332 -0.105833,-0.179916 -0.201083,-0.296332 -0.116416,-0.116417 -0.264582,-0.1905 v 1.629828 0.01058 0.01058 l -0.01058,0.01058 q 0,0.01058 -0.01058,0.01058 l -0.804331,0.677331 h -0.01058 v 0.01058 h -0.01058 -0.01058 -0.01058 l -0.613831,-0.126999 q -0.01058,0 -0.03175,-0.02117 -0.01058,-0.01058 -0.01058,-0.03175 v -6.011314 -0.01058 -0.01058 -0.01058 h 0.01058 v -0.01058 l 0.01058,-0.01058 0.804331,-0.666748 v -0.01058 h 0.01058 q 0.01058,0 0.01058,-0.01058 h 0.01058 0.01058 0.01058 l 1.682744,0.349249 q 0.804331,0.179916 1.301746,0.730247 0.497415,0.582082 0.497415,1.31233 0,0.687914 -0.412749,1.068913 -0.03175,0.04233 -0.07408,0.07408 l -0.560915,0.465665 q 0.169333,0.253999 0.349249,0.666748 l 0.878414,2.137827 q 0.02117,0.02117 0,0.04233 v 0.01058 l -0.01058,0.01058 -0.804331,0.677332 z m -0.15875,-2.836325 q -0.08467,-0.190499 -0.169332,-0.349249 -0.07408,-0.158749 -0.15875,-0.285749 l -0.126999,0.105833 q 0,0.01058 -0.01058,0.01058 -0.306915,0.264582 -0.709081,0.306915 0.243416,0.296333 0.476249,0.836081 l 0.857247,2.063743 0.698498,-0.592664 z M 19.298725,11.40623 Q 18.83306,10.866482 18.060479,10.707732 l -1.650994,-0.338666 -0.687915,0.571499 1.566328,0.328082 q 0.793748,0.158749 1.301746,0.730248 0.497415,0.560915 0.497415,1.301745 0,0.391583 -0.137583,0.698498 l 0.380999,-0.317499 q 0.04233,-0.04233 0.07408,-0.0635 0.359833,-0.349248 0.359833,-0.984246 0,-0.698498 -0.465666,-1.227663 z m -2.360075,3.354906 q -0.04233,-0.01058 -0.08467,-0.02117 -0.03175,-0.01058 -0.08467,-0.02117 L 16.250735,14.61297 v 2.370659 l 0.687915,-0.571498 z m 0.465665,0.158749 q 0.232832,0.243416 0.433915,0.761998 l 0.793748,1.873244 0.486831,0.105833 -0.83608,-2.031994 q -0.275166,-0.645581 -0.539749,-0.888997 -0.02117,-0.02117 -0.02117,-0.03175 v -0.01058 -0.01058 -0.01058 q 0,-0.01058 0.01058,-0.01058 v -0.01058 q 0.01058,0 0.01058,-0.01058 h 0.01058 l 0.01058,-0.01058 h 0.01058 q 0.486832,-0.01058 0.825498,-0.338665 0.359832,-0.349249 0.359832,-0.994831 0,-0.698497 -0.455082,-1.227662 -0.486832,-0.529165 -1.248829,-0.687915 l -1.608662,-0.328082 v 5.884315 l 0.486832,0.09525 v -2.497658 q 0,-0.02117 0.01058,-0.03175 v -0.01058 h 0.01058 v -0.01058 h 0.01058 q 0.01058,0 0.01058,0 0,-0.01058 0.01058,-0.01058 h 0.02117 l 0.592665,0.126999 q 0.380998,0.08467 0.603248,0.317499 z"
         style="font-style:normal;font-variant:normal;font-weight:normal;font-stretch:normal;font-family:Letterblocks;-inkscape-font-specification:Letterblocks;stroke-width:0.0200563"
         id="path849" />
      <path
         d="m 25.532269,11.660229 v 0.01058 q 0,0.01058 -0.01058,0.01058 v 0.01058 q 0,0.01058 -0.01058,0.01058 l -0.804331,0.677331 h -0.01058 q 0,0.01058 -0.01058,0.01058 h -0.01058 -0.01058 -0.01058 l -0.783164,-0.15875 v 4.550819 0.01058 q 0,0.01058 -0.01058,0.01058 0,0.01058 -0.01058,0.02117 l -0.804331,0.677331 q 0,0 -0.02117,0.01058 h -0.01058 -0.01058 -0.01058 l -0.592665,-0.127 q -0.02117,0 -0.02117,-0.01058 h -0.01058 q -0.02117,-0.02117 -0.02117,-0.04233 v -5.41865 l -1.608661,-0.338665 h -0.02117 v -0.01058 h -0.01058 q -0.02117,-0.02117 -0.02117,-0.04233 v -0.550331 -0.01058 q 0.01058,0 0.01058,-0.01058 v -0.01058 h 0.01058 v -0.01058 l 0.804331,-0.677331 h 0.01058 v -0.01058 h 0.01058 0.03175 l 3.915821,0.814914 h 0.01058 0.01058 q 0,0 0.01058,0.01058 0.01058,0 0.01058,0.01058 l 0.01058,0.01058 v 0.01058 0.01058 z m -0.920747,0.592665 v -0.423332 l -3.799405,-0.783164 v 0.423332 l 1.608662,0.338665 q 0.05292,0 0.05292,0.05292 v 5.418649 l 0.476248,0.09525 v -5.3869 q 0,-0.0635 0.05292,-0.0635 h 0.02117 l 0.793747,0.169332 h 0.01058 z m -3.725322,-1.312329 3.767655,0.783164 0.687914,-0.582082 -3.778238,-0.772581 z m 3.841738,1.259412 0.687914,-0.571498 v -0.391582 l -0.687914,0.571498 z m -0.973664,0 -0.687914,-0.137583 v 5.2599 l 0.687914,-0.571498 z"
         style="font-style:normal;font-variant:normal;font-weight:normal;font-stretch:normal;font-family:Letterblocks;-inkscape-font-specification:Letterblocks;stroke-width:0.0200563"
         id="path851" />
      <path
         d="m 29.966657,16.856629 v 0.01058 q -0.01058,0 -0.01058,0.01058 v 0.01058 l -0.01058,0.01058 -0.01058,0.01058 -0.793748,0.666748 h -0.01058 v 0.01058 h -0.01058 -0.01058 q 0,0.01058 -0.01058,0.01058 h -0.01058 v -0.01058 l -2.920991,-0.592665 q 0,-0.01058 -0.01058,-0.01058 h -0.01058 v -0.01058 q -0.02117,-0.02117 -0.02117,-0.04233 v -6.011314 -0.01058 -0.01058 l 0.01058,-0.01058 v -0.01058 h 0.01058 v -0.01058 l 0.793748,-0.666748 q 0.04233,-0.02117 0.0635,-0.01058 l 0.603248,0.127 h 0.01058 q 0.01058,0 0.01058,0.01058 h 0.01058 v 0.01058 h 0.01058 v 0.01058 0.01058 0.01058 5.41865 l 2.264826,0.465665 h 0.01058 q 0,0 0.01058,0.01058 0.01058,0 0.01058,0.01058 l 0.01058,0.01058 v 0.01058 0.01058 q 0.01058,0 0.01058,0.01058 z m -3.651239,-5.968981 0.455082,0.09525 0.687914,-0.582082 -0.455081,-0.09525 z m 1.21708,-0.391582 -0.687915,0.571498 v 5.312817 l 0.687915,-0.571499 z m -1.291163,6.38173 2.793991,0.582081 V 17.036545 L 26.781083,16.57088 H 26.7705 v -0.01058 h -0.01058 -0.01058 q -0.02117,-0.02117 -0.02117,-0.05292 v -5.418649 l -0.486832,-0.09525 z m 2.920991,0.529165 0.677331,-0.571498 V 16.44388 l -0.677331,0.571499 z m -1.555745,-1.502829 -0.687915,0.571498 2.158993,0.444499 0.687915,-0.571498 z"
         style="font-style:normal;font-variant:normal;font-weight:normal;font-stretch:normal;font-family:Letterblocks;-inkscape-font-specification:Letterblocks;stroke-width:0.0200563"
         id="path853" />
      <path
         d="m 33.5438,13.55464 q -0.08467,0.349249 -0.349249,0.539748 -0.264582,0.179916 -0.634998,0.179916 -0.211666,0 -0.391582,-0.04233 l -0.86783,-0.179916 q -0.03175,0 -0.03175,-0.02117 h -0.01058 q -0.01058,-0.01058 -0.01058,-0.04233 v -2.338909 -0.02117 h 0.01058 v -0.01058 q 0.01058,-0.03175 0.0635,-0.03175 l 0.952497,0.201083 q 0.645582,0.126999 0.973664,0.507998 0.328082,0.370416 0.328082,0.920747 0,0.190499 -0.03175,0.328082 z m -0.391582,-1.18533 q -0.306915,-0.338665 -0.910164,-0.465665 l -0.07408,-0.01058 v 1.375829 l 0.825498,0.169332 q 0.211666,0.04233 0.444498,0.04233 0.01058,-0.0635 0.01058,-0.127 0.01058,-0.0635 0.01058,-0.137583 0,-0.486832 -0.306916,-0.846664 z m -1.100663,-0.507998 -0.687914,-0.137583 v 2.137826 l 0.687914,-0.571498 z m 0.137583,2.254243 q 0.603248,0.116416 0.93133,-0.116417 0.211666,-0.158749 0.285749,-0.402165 h -0.04233 q -0.08467,0 -0.190499,-0.01058 -0.09525,-0.01058 -0.201083,-0.03175 l -0.846664,-0.169333 -0.687914,0.571498 z m 2.169576,3.672405 q 0,0.01058 -0.01058,0.01058 h -0.01058 -0.01058 -0.01058 l -0.634998,-0.127 v -0.01058 h -0.01058 -0.01058 v -0.01058 h -0.01058 v -0.01058 q -0.01058,0 -0.01058,-0.01058 l -0.804331,-1.904994 q -0.09525,-0.243416 -0.201082,-0.423332 -0.105833,-0.179916 -0.201083,-0.296332 -0.116416,-0.116417 -0.264583,-0.1905 v 1.629828 0.01058 0.01058 l -0.01058,0.01058 q 0,0.01058 -0.01058,0.01058 l -0.804331,0.677331 h -0.01058 v 0.01058 h -0.01058 -0.01058 -0.01058 l -0.613832,-0.126999 q -0.01058,0 -0.03175,-0.02117 -0.01058,-0.01058 -0.01058,-0.03175 v -6.011314 -0.01058 -0.01058 -0.01058 h 0.01058 v -0.01058 l 0.01058,-0.01058 0.804331,-0.666748 v -0.01058 h 0.01058 q 0.01058,0 0.01058,-0.01058 h 0.01058 0.01058 0.01058 l 1.682745,0.349249 q 0.80433,0.179916 1.301746,0.730247 0.497415,0.582082 0.497415,1.31233 0,0.687914 -0.412749,1.068913 -0.03175,0.04233 -0.07408,0.07408 l -0.560915,0.465665 q 0.169333,0.253999 0.349249,0.666748 l 0.878414,2.137827 q 0.02117,0.02117 0,0.04233 v 0.01058 l -0.01058,0.01058 -0.80433,0.677332 z m -0.158749,-2.836325 q -0.08467,-0.190499 -0.169333,-0.349249 -0.07408,-0.158749 -0.158749,-0.285749 l -0.127,0.105833 q 0,0.01058 -0.01058,0.01058 -0.306916,0.264582 -0.709081,0.306915 0.243416,0.296333 0.476248,0.836081 l 0.857247,2.063743 0.698498,-0.592664 z m 0.211666,-3.545405 q -0.465665,-0.539748 -1.238246,-0.698498 l -1.650995,-0.338666 -0.687914,0.571499 1.566328,0.328082 q 0.793747,0.158749 1.301746,0.730248 0.497415,0.560915 0.497415,1.301745 0,0.391583 -0.137583,0.698498 l 0.380999,-0.317499 q 0.04233,-0.04233 0.07408,-0.0635 0.359832,-0.349248 0.359832,-0.984246 0,-0.698498 -0.465665,-1.227663 z m -2.360076,3.354906 q -0.04233,-0.01058 -0.08467,-0.02117 -0.03175,-0.01058 -0.08467,-0.02117 L 31.363641,14.61297 v 2.370659 l 0.687914,-0.571498 z m 0.465665,0.158749 q 0.232833,0.243416 0.433916,0.761998 l 0.793747,1.873244 0.486832,0.105833 -0.836081,-2.031994 q -0.275166,-0.645581 -0.539748,-0.888997 -0.02117,-0.02117 -0.02117,-0.03175 v -0.01058 -0.01058 -0.01058 q 0,-0.01058 0.01058,-0.01058 v -0.01058 q 0.01058,0 0.01058,-0.01058 h 0.01058 l 0.01058,-0.01058 h 0.01058 q 0.486832,-0.01058 0.825497,-0.338665 0.359832,-0.349249 0.359832,-0.994831 0,-0.698497 -0.455082,-1.227662 -0.486831,-0.529165 -1.248829,-0.687915 l -1.608661,-0.328082 v 5.884315 l 0.486831,0.09525 v -2.497658 q 0,-0.02117 0.01058,-0.03175 v -0.01058 h 0.01058 v -0.01058 h 0.01058 q 0.01058,0 0.01058,0 0,-0.01058 0.01058,-0.01058 h 0.02117 l 0.592665,0.126999 q 0.380999,0.08467 0.603248,0.317499 z"
         style="font-style:normal;font-variant:normal;font-weight:normal;font-stretch:normal;font-family:Letterblocks;-inkscape-font-specification:Letterblocks;stroke-width:0.0200563"
         id="path855" />
    </g>
    <g
       aria-label="keep it shrt"
       transform="matrix(2.8907169,0,0,2.8907169,-137.25563,-408.9401)"
       id="text839"
       style="font-style:normal;font-variant:normal;font-weight:normal;font-stretch:normal;font-size:10.5833px;line-height:1.25;font-family:Letterblocks;-inkscape-font-specification:Letterblocks;letter-spacing:0px;word-spacing:0px;white-space:pre;shape-inside:url(#rect841);fill:#000000;fill-opacity:1;stroke:none;stroke-width:0.345935">
      <path
         d="m 57.951078,170.58183 h -0.01058 l -0.80433,0.67733 h -0.01058 v 0.0106 h -0.01058 -0.01058 -0.01058 -0.01058 l -0.719664,-0.14817 h -0.02117 v -0.0106 h -0.01058 v -0.0106 h -0.01058 L 54.829004,169.079 v 0.81492 q 0,0.0212 -0.01058,0.0212 v 0.0106 q 0,0.0106 -0.01058,0.0106 l -0.804331,0.67733 h -0.01058 q 0,0.0106 -0.01058,0.0106 h -0.01058 -0.01058 -0.01058 l -0.603248,-0.127 h -0.01058 -0.01058 v -0.0106 q -0.02117,-0.0212 -0.02117,-0.0423 v -6.01132 -0.0106 -0.0106 -0.0106 l 0.02117,-0.0212 0.793747,-0.66675 q 0,0 0.04233,-0.0212 h 0.01058 l 0.613831,0.127 q 0,0.0106 0.01058,0.0106 h 0.01058 q 0.01058,0.0106 0.01058,0.0212 0.01058,0 0.01058,0.0106 v 0.0106 0.0106 2.413 l 1.386412,-1.31233 H 56.226 l 0.793747,-0.67734 q 0.01058,0 0.02117,-0.0106 h 0.01058 0.01058 0.01058 l 0.687914,0.13758 q 0,0.0106 0.01058,0.0106 h 0.01058 v 0.0106 h 0.01058 v 0.0106 l 0.01058,0.0106 v 0.0106 0.0106 0.0106 0.0106 l -0.01058,0.0106 v 0.0106 h -0.01058 l -2.476492,2.36007 2.645825,3.60891 v 0.0106 h 0.01058 v 0.0106 0.0106 0.0106 0.0106 h -0.01058 v 0.0106 z m -2.741075,-3.59832 -0.709081,0.59266 2.603492,3.54541 0.709081,-0.59267 z m 1.746244,4.13807 -2.582325,-3.52424 h -0.01058 v -0.0106 -0.0106 -0.0106 -0.0106 -0.0106 -0.0106 h 0.01058 v -0.0106 l 2.444743,-2.31774 -0.539749,-0.11642 -1.471078,1.38641 -0.783165,0.75142 h -0.01058 q 0,0.0106 -0.01058,0.0106 h -0.01058 v 0.0106 h -0.01058 -0.01058 -0.01058 -0.01058 -0.01058 v -0.0106 h -0.01058 v -0.0106 h -0.01058 q -0.01058,-0.0106 -0.01058,-0.0423 v -2.58232 l -0.486832,-0.0952 v 5.88431 l 0.486832,0.0952 v -2.66699 -0.0106 -0.0106 q 0,0 0.01058,-0.0106 v -0.0106 q 0.01058,0 0.01058,-0.0106 h 0.01058 q 0,0 0.01058,-0.0106 h 0.01058 0.01058 q 0.01058,0 0.01058,0.0106 h 0.01058 q 0.01058,0 0.01058,0.0106 h 0.01058 v 0.0106 l 0.804331,1.0795 1.587495,2.13782 z m -3.460739,-6.73098 0.455082,0.0952 0.687915,-0.5715 -0.455082,-0.0953 z m 2.899825,0.60325 0.529165,0.10583 0.687914,-0.5715 -0.529165,-0.10583 z m -1.682745,1.41816 v -2.40241 l -0.687915,0.5715 v 2.47649 z m 0,2.50824 -0.687915,-0.92074 v 2.43416 l 0.687915,-0.5715 z"
         style="font-style:normal;font-variant:normal;font-weight:normal;font-stretch:normal;font-family:Letterblocks;-inkscape-font-specification:Letterblocks;stroke-width:0.345935"
         id="path858" />
      <path
         d="m 62.533632,170.30667 q 0,0.0106 -0.01058,0.0212 0,0 0,0.0106 l -0.01058,0.0106 -0.804331,0.67733 h -0.01058 q 0,0.0106 -0.01058,0.0106 h -0.01058 -0.01058 -0.01058 l -3.026824,-0.62441 h -0.01058 q -0.03175,-0.0106 -0.03175,-0.0635 v -6.00073 -0.0212 q 0,-0.0106 0.02117,-0.0317 l 0.793747,-0.66675 q 0.02117,-0.0212 0.05292,-0.0212 l 2.899825,0.60324 h 0.01058 0.01058 v 0.0106 h 0.01058 v 0.0106 q 0,0 0.01058,0.0106 v 0.0106 0.0106 h 0.01058 v 0.55033 q 0,0.0106 -0.02117,0.0317 v 0.0106 l -0.80433,0.67733 h -0.01058 v 0.0106 h -0.01058 -0.01058 -0.01058 -0.01058 l -1.418162,-0.28575 v 1.17475 l 2.074327,0.43391 h 0.01058 q 0.01058,0 0.01058,0.0106 h 0.01058 v 0.0106 q 0.01058,0 0.01058,0.0106 v 0.0106 h 0.01058 v 0.0106 0.0106 0.53975 0.0106 l -0.01058,0.0106 v 0.0106 l -0.01058,0.0106 v 0.0106 l -0.804331,0.66675 q -0.01058,0 -0.01058,0.0106 h -0.01058 -0.01058 -0.01058 -0.01058 l -1.248829,-0.254 v 1.25941 l 2.370659,0.49742 h 0.01058 0.01058 v 0.0106 h 0.01058 l 0.01058,0.0106 v 0.0106 h 0.01058 v 0.0106 0.0106 z m -3.757072,-6.00074 2.741075,0.5715 0.687914,-0.58208 -2.741074,-0.56091 z m 3.503072,0.0847 -0.677331,0.58208 v 0.381 l 0.677331,-0.5715 z m -3.577155,5.91607 2.910408,0.59266 V 170.476 l -2.37066,-0.48683 q -0.02117,0 -0.04233,-0.0212 v -0.0106 q -0.01058,0 -0.01058,-0.0106 v -0.0106 -2.23308 q 0,-0.0212 0.01058,-0.0212 0.01058,-0.0423 0.0635,-0.0317 l 0.793748,0.15875 h 0.01058 l 1.238246,0.26458 v -0.42333 l -2.063744,-0.43392 h -0.01058 -0.01058 l -0.01058,-0.0106 q -0.02117,-0.0212 -0.02117,-0.0423 v -2.14841 q 0,-0.0212 0.01058,-0.0317 v -0.0106 h 0.01058 q 0.02117,-0.0212 0.04233,-0.0212 h 0.01058 l 2.21191,0.46566 v -0.42333 l -2.772825,-0.58208 z m 3.407823,-3.24908 -0.677331,0.5715 v 0.39158 l 0.677331,-0.5715 z m -0.380999,3.78882 0.677331,-0.57149 v -0.39159 l -0.677331,0.5715 z m -1.661578,-1.52399 -0.687915,0.5715 2.27541,0.47625 0.677331,-0.58209 z m -0.07408,-1.397 -0.687915,-0.14816 v 2.02141 l 0.687915,-0.5715 z m 0.07408,-1.37583 -0.687915,0.58209 1.979077,0.40216 0.677332,-0.5715 z m -0.07408,-1.32291 -0.687915,-0.13758 v 1.94733 l 0.687915,-0.58209 z"
         style="font-style:normal;font-variant:normal;font-weight:normal;font-stretch:normal;font-family:Letterblocks;-inkscape-font-specification:Letterblocks;stroke-width:0.345935"
         id="path860" />
      <path
         d="m 67.063279,170.30667 q 0,0.0106 -0.01058,0.0212 0,0 0,0.0106 l -0.01058,0.0106 -0.804331,0.67733 h -0.01058 q 0,0.0106 -0.01058,0.0106 h -0.01058 -0.01058 -0.01058 l -3.026824,-0.62441 h -0.01058 q -0.03175,-0.0106 -0.03175,-0.0635 v -6.00073 -0.0212 q 0,-0.0106 0.02117,-0.0317 l 0.793748,-0.66675 q 0.02117,-0.0212 0.05292,-0.0212 l 2.899824,0.60324 h 0.01058 0.01058 v 0.0106 h 0.01058 v 0.0106 q 0,0 0.01058,0.0106 v 0.0106 0.0106 h 0.01058 v 0.55033 q 0,0.0106 -0.02117,0.0317 v 0.0106 l -0.80433,0.67733 h -0.01058 v 0.0106 h -0.01058 -0.01058 -0.01058 -0.01058 l -1.418162,-0.28575 v 1.17475 l 2.074327,0.43391 h 0.01058 q 0.01058,0 0.01058,0.0106 h 0.01058 v 0.0106 q 0.01058,0 0.01058,0.0106 v 0.0106 h 0.01058 v 0.0106 0.0106 0.53975 0.0106 l -0.01058,0.0106 v 0.0106 l -0.01058,0.0106 v 0.0106 l -0.804331,0.66675 q -0.01058,0 -0.01058,0.0106 h -0.01058 -0.01058 -0.01058 -0.01058 l -1.248829,-0.254 v 1.25941 l 2.370659,0.49742 h 0.01058 0.01058 v 0.0106 h 0.01058 l 0.01058,0.0106 v 0.0106 h 0.01058 v 0.0106 0.0106 z m -3.757072,-6.00074 2.741075,0.5715 0.687914,-0.58208 -2.741074,-0.56091 z m 3.503072,0.0847 -0.677331,0.58208 v 0.381 l 0.677331,-0.5715 z m -3.577155,5.91607 2.910407,0.59266 V 170.476 l -2.370659,-0.48683 q -0.02117,0 -0.04233,-0.0212 v -0.0106 q -0.01058,0 -0.01058,-0.0106 v -0.0106 -2.23308 q 0,-0.0212 0.01058,-0.0212 0.01058,-0.0423 0.0635,-0.0317 l 0.793747,0.15875 h 0.01058 l 1.238246,0.26458 v -0.42333 l -2.063744,-0.43392 h -0.01058 -0.01058 l -0.01058,-0.0106 q -0.02117,-0.0212 -0.02117,-0.0423 v -2.14841 q 0,-0.0212 0.01058,-0.0317 v -0.0106 h 0.01058 q 0.02117,-0.0212 0.04233,-0.0212 h 0.01058 l 2.21191,0.46566 v -0.42333 l -2.772825,-0.58208 z m 3.407823,-3.24908 -0.677332,0.5715 v 0.39158 l 0.677332,-0.5715 z m -0.380999,3.78882 0.677331,-0.57149 v -0.39159 l -0.677331,0.5715 z m -1.661578,-1.52399 -0.687915,0.5715 2.27541,0.47625 0.677331,-0.58209 z m -0.07408,-1.397 -0.687915,-0.14816 v 2.02141 l 0.687915,-0.5715 z m 0.07408,-1.37583 -0.687915,0.58209 1.979077,0.40216 0.677331,-0.5715 z m -0.07408,-1.32291 -0.687915,-0.13758 v 1.94733 l 0.687915,-0.58209 z"
         style="font-style:normal;font-variant:normal;font-weight:normal;font-stretch:normal;font-family:Letterblocks;-inkscape-font-specification:Letterblocks;stroke-width:0.345935"
         id="path862" />
      <path
         d="m 71.455343,164.72927 q 0.497415,0.58208 0.497415,1.31233 0,0.68791 -0.402166,1.06891 -0.02117,0.0212 -0.04233,0.0423 -0.01058,0.0106 -0.03175,0.0317 l -0.783164,0.64558 q -0.433915,0.40217 -1.12183,0.40217 -0.211666,0 -0.444498,-0.0317 v 1.65099 q 0,0.0106 -0.01058,0.0106 v 0.0106 q 0,0.0106 -0.01058,0.0106 v 0.0106 l -0.804331,0.67733 h -0.01058 l -0.01058,0.0106 h -0.01058 -0.01058 -0.01058 l -0.603248,-0.127 q -0.03175,0 -0.03175,-0.0212 h -0.01058 q 0,-0.0106 -0.01058,-0.0106 0,-0.0106 0,-0.0317 v -6.00073 -0.0106 -0.0106 l 0.01058,-0.0106 v -0.0106 q 0.01058,0 0.01058,-0.0106 l 0.804331,-0.67733 h 0.01058 q 0.01058,-0.0106 0.04233,-0.0106 l 1.682745,0.34925 q 0.80433,0.17992 1.301746,0.73025 z m -3.132657,3.2914 v 2.37066 l 0.677331,-0.5715 v -1.64041 z m 0.751414,0.0529 q 0.529165,0.0847 0.888997,0 0.370416,-0.0847 0.645582,-0.32808 h 0.01058 q 0.01058,-0.0212 0.02117,-0.0212 0.01058,-0.0106 0.02117,-0.0212 0.370416,-0.37041 0.370416,-0.99483 0,-0.67733 -0.465666,-1.22766 -0.465665,-0.52916 -1.238246,-0.68791 l -1.608661,-0.33867 v 5.8949 l 0.476248,0.0953 v -2.49766 q 0,-0.0423 0.05292,-0.0635 h 0.01058 0.02117 z m 2.391826,-1.04775 q 0.370415,-0.34925 0.370415,-0.98424 0,-0.6985 -0.465665,-1.22767 -0.455082,-0.53975 -1.238246,-0.69849 l -1.661578,-0.33867 -0.677331,0.5715 1.555745,0.32808 q 0.814914,0.15875 1.301746,0.73025 0.497415,0.56091 0.497415,1.30174 0,0.41275 -0.137583,0.6985 l 0.380999,-0.3175 q 0.02117,-0.0212 0.03175,-0.0317 0.02117,-0.0106 0.04233,-0.0318 z m -0.931331,-0.40216 q 0,0.16933 -0.03175,0.32808 l -0.01058,0.0106 q -0.08467,0.34925 -0.349249,0.53975 -0.264582,0.17992 -0.634998,0.17992 -0.190499,0 -0.391582,-0.0423 l -0.86783,-0.17991 q -0.01058,0 -0.02117,-0.0106 h -0.01058 v -0.0106 q -0.02117,-0.0212 -0.02117,-0.0423 v -2.33891 q 0,-0.0635 0.0635,-0.0635 h 0.01058 l 0.804331,0.16933 0.148166,0.0317 q 0.645582,0.127 0.973664,0.508 0.338665,0.37042 0.338665,0.92075 z m -0.433915,-0.84667 q -0.306916,-0.33866 -0.89958,-0.46566 l -0.07408,-0.0106 v 1.37583 l 0.825497,0.16934 q 0.116416,0.0212 0.222249,0.0317 0.116417,0.0106 0.211666,0.0106 0.02117,-0.0635 0.02117,-0.127 0,-0.0635 0,-0.13758 0,-0.508 -0.306916,-0.84667 z m -1.100663,-0.508 -0.677331,-0.13758 v 2.13783 l 0.677331,-0.5715 z m 1.079497,2.12725 q 0.201082,-0.14817 0.275165,-0.39158 h -0.04233 q -0.08467,0 -0.190499,-0.0106 -0.09525,-0.0106 -0.201083,-0.0317 l -0.846664,-0.16933 -0.677331,0.5715 0.751414,0.15875 q 0.603248,0.11641 0.931331,-0.127 z"
         style="font-style:normal;font-variant:normal;font-weight:normal;font-stretch:normal;font-family:Letterblocks;-inkscape-font-specification:Letterblocks;stroke-width:0.345935"
         id="path864" />
      <path
         d="m 79.12823,169.81983 v 0.0106 q 0,0.0106 -0.01058,0.0106 0,0.0106 -0.01058,0.0212 l -0.804331,0.67733 h -0.01058 q 0,0.0106 -0.01058,0.0106 h -0.01058 -0.01058 -0.01058 l -0.603248,-0.127 h -0.02117 v -0.0106 h -0.01058 v -0.0106 h -0.01058 v -0.0106 q 0,0 -0.01058,-0.0212 v -6.01132 q 0,-0.0106 0.01058,-0.0106 v -0.0106 q 0,-0.0106 0.02117,-0.0318 l 0.793748,-0.66674 q 0.01058,-0.0106 0.01058,-0.0106 0.01058,0 0.02117,-0.0106 h 0.01058 0.01058 v 0.0106 l 0.603248,0.11642 h 0.01058 q 0,0.0106 0.01058,0.0106 h 0.01058 v 0.0106 h 0.01058 v 0.0106 q 0,0.0106 0.01058,0.0106 v 0.0106 0.0106 z m -1.333496,-5.49273 0.455082,0.0847 0.677331,-0.5715 -0.444499,-0.0952 z m -0.07408,5.99015 0.486832,0.10583 v -5.8949 l -0.486832,-0.0952 z m 0.603248,0.0423 0.677331,-0.5715 v -5.85256 l -0.677331,0.5715 z"
         style="font-style:normal;font-variant:normal;font-weight:normal;font-stretch:normal;font-family:Letterblocks;-inkscape-font-specification:Letterblocks;stroke-width:0.345935"
         id="path866" />
      <path
         d="m 84.684452,165.09968 v 0.0106 q 0,0.0106 -0.01058,0.0106 v 0.0106 q 0,0.0106 -0.01058,0.0106 l -0.804331,0.67733 h -0.01058 q 0,0.0106 -0.01058,0.0106 h -0.01058 -0.01058 -0.01058 l -0.783164,-0.15875 v 4.55082 0.0106 q 0,0.0106 -0.01058,0.0106 0,0.0106 -0.01058,0.0212 l -0.804331,0.67733 q 0,0 -0.02117,0.0106 h -0.01058 -0.01058 -0.01058 l -0.592665,-0.127 q -0.02117,0 -0.02117,-0.0106 h -0.01058 q -0.02117,-0.0212 -0.02117,-0.0423 v -5.41865 l -1.608662,-0.33866 h -0.02117 v -0.0106 h -0.01058 q -0.02117,-0.0212 -0.02117,-0.0423 v -0.55033 -0.0106 q 0.01058,0 0.01058,-0.0106 v -0.0106 h 0.01058 v -0.0106 l 0.80433,-0.67733 h 0.01058 v -0.0106 h 0.01058 0.03175 l 3.915821,0.81491 h 0.01058 0.01058 q 0,0 0.01058,0.0106 0.01058,0 0.01058,0.0106 l 0.01058,0.0106 v 0.0106 0.0106 z m -0.920747,0.59267 v -0.42334 l -3.799404,-0.78316 v 0.42333 l 1.608661,0.33867 q 0.05292,0 0.05292,0.0529 v 5.41865 l 0.476248,0.0952 v -5.3869 q 0,-0.0635 0.05292,-0.0635 h 0.02117 l 0.793748,0.16934 h 0.01058 z m -3.725321,-1.31233 3.767654,0.78316 0.687915,-0.58208 -3.778238,-0.77258 z m 3.841737,1.25941 0.687915,-0.5715 v -0.39158 l -0.687915,0.5715 z m -0.973663,0 -0.687915,-0.13758 v 5.2599 l 0.687915,-0.5715 z"
         style="font-style:normal;font-variant:normal;font-weight:normal;font-stretch:normal;font-family:Letterblocks;-inkscape-font-specification:Letterblocks;stroke-width:0.345935"
         id="path868" />
      <path
         d="m 94.251735,167.96776 q 0.127,0.28575 0.127,0.66674 0,0.66675 -0.423332,1.03717 l -0.793748,0.65616 q -0.05292,0.0529 -0.126999,0.0952 -0.349249,0.22225 -0.846664,0.22225 -0.275166,0 -0.571498,-0.0635 -0.317499,-0.0635 -0.730248,-0.254 -0.433915,-0.20108 -0.656165,-0.39158 -0.01058,0 -0.01058,-0.0106 0,0 -0.01058,-0.0106 v -0.0212 -0.60325 -0.0106 -0.0106 -0.0106 l 0.01058,-0.0106 v -0.0106 h 0.01058 l 0.793748,-0.66675 h 0.01058 v -0.0106 h 0.01058 l 0.01058,-0.0106 h 0.01058 0.01058 0.01058 v 0.0106 h 0.01058 0.01058 q 0.698498,0.55033 1.312329,0.67733 0.116417,0.0212 0.22225,0.0423 0.105833,0.0106 0.201082,0.0106 v -0.0741 q 0,-0.21167 -0.08467,-0.40217 -0.04233,-0.0953 -0.116416,-0.1905 -0.0635,-0.0952 -0.148166,-0.20108 -0.09525,-0.10583 -0.306916,-0.28575 -0.211666,-0.1905 -0.550332,-0.45508 -0.656164,-0.53975 -0.878414,-0.79375 -0.253999,-0.28575 -0.380998,-0.59266 -0.137583,-0.30692 -0.137583,-0.68792 0,-0.45508 0.243416,-0.79375 0.08467,-0.10583 0.201082,-0.21166 0.01058,0 0.01058,-0.0106 l 0.761997,-0.63499 q 0.211666,-0.17992 0.518582,-0.26459 0.455082,-0.11641 0.96308,-0.0106 0.285749,0.0635 0.582082,0.17992 0.296332,0.10583 0.592664,0.28575 0.02117,0.0212 0.02117,0.0318 0.01058,0 0.01058,0.0106 v 0.0106 0.5715 q 0,0.0106 -0.01058,0.0106 v 0.0106 0.0106 h -0.01058 v 0.0106 l -0.804331,0.67733 h -0.01058 v 0.0106 h -0.01058 -0.01058 -0.01058 -0.02117 q 0,0 -0.01058,-0.0106 -0.613832,-0.35983 -1.18533,-0.47624 -0.07408,-0.0212 -0.148166,-0.0212 -0.0635,-0.0106 -0.137583,-0.0212 v 0.0423 q 0,0.27516 0.08467,0.47624 0.07408,0.15875 0.296332,0.40217 0.116416,0.11642 0.306916,0.28575 0.201082,0.16933 0.486831,0.39158 0.550332,0.4445 0.857248,0.762 0.296332,0.33866 0.444498,0.635 z m -0.910164,-2.65641 0.677332,-0.5715 v -0.41275 l -0.677332,0.5715 z m -2.190743,-0.94192 h 0.02117 q 0.423332,-0.127 0.96308,-0.0106 0.560915,0.11642 1.132413,0.4445 l 0.709081,-0.59267 q -0.539748,-0.30691 -1.05833,-0.41274 -0.518581,-0.0953 -0.910163,0.0106 -0.275166,0.0741 -0.465665,0.23283 h -0.01058 z m 1.672162,5.03766 q -0.09525,0 -0.201083,-0.0106 -0.105833,-0.0212 -0.222249,-0.0423 -0.603248,-0.127 -1.333496,-0.66675 l -0.709081,0.59267 q 0.698498,0.50799 1.269996,0.63499 0.613831,0.127 0.920747,-0.0529 0.222249,-0.11642 0.275166,-0.45508 z m 0.148166,0.91016 q 0.03175,-0.0212 0.05292,-0.0423 0.03175,-0.0212 0.0635,-0.0423 0.370416,-0.30691 0.370416,-0.92074 0,-0.34925 -0.127,-0.62442 -0.126999,-0.29633 -0.412749,-0.59266 -0.148166,-0.15875 -0.359832,-0.34925 -0.211666,-0.1905 -0.486831,-0.40217 -0.28575,-0.23283 -0.486832,-0.40216 -0.201083,-0.16934 -0.317499,-0.28575 -0.22225,-0.23284 -0.317499,-0.4445 -0.09525,-0.20108 -0.09525,-0.51858 0,-0.47625 0.349249,-0.6985 0.222249,-0.13758 0.507998,-0.13758 h 0.01058 0.01058 q 0.179916,0 0.349249,0.0423 0.550331,0.11642 1.132413,0.4445 v -0.43392 q -0.571498,-0.32808 -1.100663,-0.43391 -0.518582,-0.0952 -0.910164,0.0106 -0.402165,0.0952 -0.624415,0.40217 -0.222249,0.28575 -0.222249,0.71966 0,0.34925 0.127,0.635 0.126999,0.29633 0.359832,0.56091 0.116416,0.13759 0.338665,0.33867 0.22225,0.1905 0.529165,0.4445 0.338666,0.27516 0.550332,0.46566 0.222249,0.17992 0.317499,0.28575 0.09525,0.11642 0.169333,0.22225 0.07408,0.0952 0.116416,0.20108 0.09525,0.21167 0.09525,0.45509 0,0.0952 -0.01058,0.13758 v 0.0106 q -0.03175,0.42333 -0.338665,0.60325 -0.211666,0.11642 -0.518582,0.11642 -0.201083,0 -0.497415,-0.0529 -0.582081,-0.127 -1.269996,-0.62441 v 0.45508 q 0.116416,0.0847 0.264583,0.17991 0.158749,0.0952 0.349248,0.17992 0.423332,0.17992 0.698498,0.24342 0.836081,0.16933 1.333496,-0.14817 z m 0.89958,-0.74083 q 0.391583,-0.3175 0.391583,-0.94192 0,-0.33866 -0.127,-0.62441 -0.127,-0.28575 -0.412749,-0.59267 -0.306915,-0.31749 -0.846664,-0.75141 -0.285749,-0.23283 -0.486831,-0.40216 -0.201083,-0.16934 -0.317499,-0.28575 -0.211666,-0.23284 -0.317499,-0.43392 -0.09525,-0.20108 -0.09525,-0.52916 v -0.0317 q -0.222249,0 -0.391582,0.11641 -0.296333,0.16933 -0.296333,0.59267 0,0.27516 0.08467,0.47625 0.105833,0.20108 0.296332,0.40216 0.116416,0.11642 0.306916,0.28575 0.201083,0.15875 0.486832,0.39158 0.275165,0.21167 0.486831,0.41275 0.22225,0.1905 0.370416,0.34925 0.296332,0.32808 0.444498,0.62441 0.127,0.30692 0.127,0.67734 0,0.35983 -0.105833,0.60324 z"
         style="font-style:normal;font-variant:normal;font-weight:normal;font-stretch:normal;font-family:Letterblocks;-inkscape-font-specification:Letterblocks;stroke-width:0.345935"
         id="path870" />
      <path
         d="m 100.2842,170.61358 v 0.0106 0.0106 0.0106 q 0,0 -0.0212,0.0212 l -0.793748,0.66675 h -0.01058 v 0.0106 h -0.01058 -0.01058 -0.01058 -0.01058 l -0.603248,-0.11642 q -0.04233,-0.0212 -0.04233,-0.0635 V 168.444 l -2.169576,-0.44449 v 1.85207 0.0106 0.0106 0.0106 q 0,0 -0.01058,0.0106 l -0.01058,0.0106 -0.793747,0.66675 h -0.01058 v 0.0106 h -0.01058 -0.01058 -0.01058 -0.01058 l -0.613831,-0.11641 q 0,-0.0106 -0.01058,-0.0106 h -0.01058 v -0.0106 q -0.02117,-0.0212 -0.02117,-0.0423 v -6.01132 -0.0106 -0.0106 l 0.01058,-0.0106 v -0.0106 h 0.01058 l 0.804331,-0.67733 0.01058,-0.0106 h 0.01058 0.01058 0.02117 l 0.603248,0.127 h 0.01058 q 0.01058,0 0.01058,0.0106 h 0.01058 v 0.0106 h 0.01058 v 0.0106 0.0106 0.0106 2.64582 l 2.169576,0.4445 v -1.77799 -0.0106 -0.0106 -0.0106 h 0.01058 v -0.0106 h 0.01058 l 0.804331,-0.67734 0.01058,-0.0106 h 0.01058 0.01058 0.01058 l 0.603245,0.127 h 0.0106 0.0106 v 0.0106 h 0.0106 q 0,0.0106 0.0106,0.0106 v 0.0106 0.0106 0.0106 z m -4.41324,-3.43957 2.899824,0.60325 v -0.71967 l -2.211909,-0.45508 z m 0.613832,-3.20674 -0.687915,0.5715 v 2.53999 l 0.687915,-0.5715 z m -1.21708,0.39158 0.455082,0.0953 0.687915,-0.58208 -0.455082,-0.0952 z m 1.21708,3.60891 -0.687915,-0.13759 v 2.57175 l 0.687915,-0.58209 z m 2.878657,-2.64583 -0.476248,-0.0953 v 2.62466 q 0,0.0212 -0.01058,0.0318 l -0.01058,0.0106 -0.01058,0.0106 h -0.01058 -0.01058 -0.01058 -0.01058 l -3.079741,-0.635 h -0.01058 q -0.01058,0 -0.01058,-0.0106 h -0.01058 q -0.02117,-0.0212 -0.02117,-0.0529 v -2.64583 l -0.486832,-0.0953 v 5.88432 l 0.486832,0.10583 v -2.69874 q 0,-0.0212 0.01058,-0.0317 v -0.0106 q 0.02117,-0.0212 0.05292,-0.0212 h 0.01058 l 0.804331,0.16933 2.285993,0.47625 q 0.04233,0 0.04233,0.0529 v 2.71991 l 0.476248,0.10583 z m 0.730251,-0.68791 -0.444502,-0.0847 -0.687914,0.5715 0.444498,0.0953 z m 0.0741,0.0953 -0.677331,0.57149 v 5.86315 l 0.677331,-0.58208 z"
         style="font-style:normal;font-variant:normal;font-weight:normal;font-stretch:normal;font-family:Letterblocks;-inkscape-font-specification:Letterblocks;stroke-width:0.345935"
         id="path872" />
      <path
         d="m 103.93543,166.99409 q -0.0847,0.34925 -0.34925,0.53975 -0.26458,0.17992 -0.635,0.17992 -0.21166,0 -0.39158,-0.0423 l -0.86783,-0.17991 q -0.0318,0 -0.0318,-0.0212 h -0.0106 q -0.0106,-0.0106 -0.0106,-0.0423 v -2.33891 -0.0212 h 0.0106 v -0.0106 q 0.0106,-0.0318 0.0635,-0.0318 l 0.95249,0.20108 q 0.64558,0.127 0.97367,0.508 0.32808,0.37042 0.32808,0.92075 0,0.1905 -0.0318,0.32808 z m -0.39158,-1.18533 q -0.30692,-0.33866 -0.91017,-0.46566 l -0.0741,-0.0106 v 1.37583 l 0.8255,0.16934 q 0.21166,0.0423 0.4445,0.0423 0.0106,-0.0635 0.0106,-0.127 0.0106,-0.0635 0.0106,-0.13758 0,-0.48683 -0.30691,-0.84667 z m -1.10067,-0.508 -0.68791,-0.13758 v 2.13783 l 0.68791,-0.5715 z m 0.13759,2.25425 q 0.60324,0.11641 0.93133,-0.11642 0.21166,-0.15875 0.28575,-0.40216 h -0.0423 q -0.0847,0 -0.1905,-0.0106 -0.0953,-0.0106 -0.20108,-0.0317 l -0.84666,-0.16933 -0.68792,0.5715 z m 2.16957,3.6724 q 0,0.0106 -0.0106,0.0106 h -0.0106 -0.0106 -0.0106 l -0.635,-0.127 v -0.0106 h -0.0106 -0.0106 v -0.0106 h -0.0106 v -0.0106 q -0.0106,0 -0.0106,-0.0106 l -0.80433,-1.90499 q -0.0952,-0.24342 -0.20109,-0.42333 -0.10583,-0.17992 -0.20108,-0.29634 -0.11641,-0.11641 -0.26458,-0.19049 v 1.62982 0.0106 0.0106 l -0.0106,0.0106 q 0,0.0106 -0.0106,0.0106 l -0.80433,0.67733 h -0.0106 v 0.0106 h -0.0106 -0.0106 -0.0106 l -0.61383,-0.127 q -0.0106,0 -0.0318,-0.0212 -0.0106,-0.0106 -0.0106,-0.0317 v -6.01132 -0.0106 -0.0106 -0.0106 h 0.0106 v -0.0106 l 0.0106,-0.0106 0.80433,-0.66674 v -0.0106 h 0.0106 q 0.0106,0 0.0106,-0.0106 h 0.0106 0.0106 0.0106 l 1.68274,0.34925 q 0.80433,0.17991 1.30175,0.73025 0.49741,0.58208 0.49741,1.31233 0,0.68791 -0.41274,1.06891 -0.0318,0.0423 -0.0741,0.0741 l -0.56091,0.46567 q 0.16933,0.254 0.34925,0.66675 l 0.87841,2.13782 q 0.0212,0.0212 0,0.0423 v 0.0106 l -0.0106,0.0106 -0.80433,0.67733 z m -0.15875,-2.83632 q -0.0847,-0.1905 -0.16933,-0.34925 -0.0741,-0.15875 -0.15875,-0.28575 l -0.127,0.10583 q 0,0.0106 -0.0106,0.0106 -0.30692,0.26458 -0.70908,0.30691 0.24341,0.29633 0.47625,0.83608 l 0.85724,2.06375 0.6985,-0.59267 z m 0.21167,-3.54541 q -0.46567,-0.53975 -1.23825,-0.69849 l -1.65099,-0.33867 -0.68792,0.5715 1.56633,0.32808 q 0.79375,0.15875 1.30175,0.73025 0.49741,0.56091 0.49741,1.30174 0,0.39159 -0.13758,0.6985 l 0.381,-0.3175 q 0.0423,-0.0423 0.0741,-0.0635 0.35983,-0.34925 0.35983,-0.98424 0,-0.6985 -0.46566,-1.22767 z m -2.36008,3.35491 q -0.0423,-0.0106 -0.0847,-0.0212 -0.0318,-0.0106 -0.0847,-0.0212 l -0.51858,-0.10584 v 2.37066 l 0.68791,-0.5715 z m 0.46567,0.15875 q 0.23283,0.24341 0.43391,0.762 l 0.79375,1.87324 0.48683,0.10583 -0.83608,-2.03199 q -0.27516,-0.64558 -0.53975,-0.889 -0.0212,-0.0212 -0.0212,-0.0317 v -0.0106 -0.0106 -0.0106 q 0,-0.0106 0.0106,-0.0106 v -0.0106 q 0.0106,0 0.0106,-0.0106 h 0.0106 l 0.0106,-0.0106 h 0.0106 q 0.48684,-0.0106 0.8255,-0.33867 0.35983,-0.34925 0.35983,-0.99483 0,-0.69849 -0.45508,-1.22766 -0.48683,-0.52916 -1.24883,-0.68791 l -1.60866,-0.32809 v 5.88432 l 0.48683,0.0952 v -2.49766 q 0,-0.0212 0.0106,-0.0318 v -0.0106 h 0.0106 v -0.0106 h 0.0106 q 0.0106,0 0.0106,0 0,-0.0106 0.0106,-0.0106 h 0.0212 l 0.59266,0.127 q 0.381,0.0847 0.60325,0.3175 z"
         style="font-style:normal;font-variant:normal;font-weight:normal;font-stretch:normal;font-family:Letterblocks;-inkscape-font-specification:Letterblocks;stroke-width:0.345935"
         id="path874" />
      <path
         d="m 111.0368,165.09968 v 0.0106 q 0,0.0106 -0.0106,0.0106 v 0.0106 q 0,0.0106 -0.0106,0.0106 l -0.80433,0.67733 h -0.0106 q 0,0.0106 -0.0106,0.0106 h -0.0106 -0.0106 -0.0106 l -0.78316,-0.15875 v 4.55082 0.0106 q 0,0.0106 -0.0106,0.0106 0,0.0106 -0.0106,0.0212 l -0.80433,0.67733 q 0,0 -0.0212,0.0106 h -0.0106 -0.0106 -0.0106 l -0.59266,-0.127 q -0.0212,0 -0.0212,-0.0106 h -0.0106 q -0.0212,-0.0212 -0.0212,-0.0423 v -5.41865 l -1.60866,-0.33866 h -0.0212 v -0.0106 h -0.0106 q -0.0212,-0.0212 -0.0212,-0.0423 v -0.55033 -0.0106 q 0.0106,0 0.0106,-0.0106 v -0.0106 h 0.0106 v -0.0106 l 0.80433,-0.67733 h 0.0106 v -0.0106 h 0.0106 0.0318 l 3.91582,0.81491 h 0.0106 0.0106 q 0,0 0.0106,0.0106 0.0106,0 0.0106,0.0106 l 0.0106,0.0106 v 0.0106 0.0106 z m -0.92074,0.59267 v -0.42334 l -3.79941,-0.78316 v 0.42333 l 1.60866,0.33867 q 0.0529,0 0.0529,0.0529 v 5.41865 l 0.47625,0.0952 v -5.3869 q 0,-0.0635 0.0529,-0.0635 h 0.0212 l 0.79375,0.16934 h 0.0106 z m -3.72532,-1.31233 3.76765,0.78316 0.68791,-0.58208 -3.77823,-0.77258 z m 3.84173,1.25941 0.68792,-0.5715 v -0.39158 l -0.68792,0.5715 z m -0.97366,0 -0.68791,-0.13758 v 5.2599 l 0.68791,-0.5715 z"
         style="font-style:normal;font-variant:normal;font-weight:normal;font-stretch:normal;font-family:Letterblocks;-inkscape-font-specification:Letterblocks;stroke-width:0.345935"
         id="path876" />
    </g>
  </g>
</svg>
